<?xml version="1.0" encoding="UTF-8"?>
<svg width="300px" height="40px" viewBox="0 0 300 40" version="1.1" xmlns="http://www.w3.org/2000/svg" xmlns:xlink="http://www.w3.org/1999/xlink">
    <!-- Generator: Sketch 46.2 (44496) - http://www.bohemiancoding.com/sketch -->
    <title>icons-blocjams</title>
    <desc>Created with Sketch.</desc>
    <defs></defs>
    <g id="Page-1" stroke="none" stroke-width="1" fill="none" fill-rule="evenodd">
        <g id="Desktop" transform="translate(-575.000000, -535.000000)" fill-rule="nonzero">
            <g id="icons-blocjams" transform="translate(575.000000, 535.000000)">
                <g id="js-copy" transform="translate(190.263158, 0.789474)">
                    <ellipse id="Oval" fill="#EEDD45" cx="21.7105263" cy="18.9473684" rx="21.7105263" ry="18.9473684"></ellipse>
                    <g id="Layer_1_1_" transform="translate(9.975107, 11.266003)" fill="#292F36">
                        <g id="Group">
                            <path d="M5.04844467,0.230440967 L8.90120508,0.230440967 L8.90120508,9.6401138 C8.90120508,13.8648649 6.55412115,15.3627312 2.83421455,15.3627312 C1.9042379,15.3627312 0.75283824,15.2475107 -7.10542736e-15,15.0170697 L0.442846024,12.2901849 C0.974261252,12.4438122 1.68281489,12.5590327 2.43565313,12.5590327 C4.07418342,12.5590327 5.09272927,11.9061166 5.09272927,9.6401138 L5.04844467,0.230440967 L5.04844467,0.230440967 Z" id="Shape"></path>
                            <path d="M12.3111195,11.6756757 C13.3296653,12.1365576 14.9681956,12.5974395 16.6067259,12.5974395 C18.37811,12.5974395 19.3080866,11.9445235 19.3080866,10.9459459 C19.3080866,10.0241821 18.5109638,9.48648649 16.4295875,8.87197724 C13.5953729,7.9886202 11.691135,6.6059744 11.691135,4.41678521 C11.691135,1.92034139 14.1710728,0 18.2009716,0 C20.1494941,0 21.5666014,0.345661451 22.5851472,0.768136558 L21.6994552,3.45661451 C21.0351861,3.18776671 19.7952173,2.76529161 18.156687,2.76529161 C16.4738721,2.76529161 15.6767492,3.45661451 15.6767492,4.18634424 C15.6767492,5.14651494 16.6067259,5.56899004 18.8652406,6.29871977 C21.8765936,7.25889047 23.2937009,8.64153627 23.2937009,10.7539118 C23.2937009,13.2503556 21.1237553,15.3627312 16.3853029,15.3627312 C14.4367804,15.3627312 12.4882579,14.9018492 11.5139966,14.4409673 L12.3111195,11.6756757 Z" id="Shape"></path>
                        </g>
                    </g>
                </g>
                <g id="angular-copy" transform="translate(124.736842, 0.000000)">
                    <polygon id="Shape" fill="#E23135" points="20.9210526 0 20.9210526 0 20.9210526 0 0 6.55263158 3.19096614 30.8486842 20.9210526 39.4736842 20.9210526 39.4736842 20.9210526 39.4736842 38.6511391 30.8486842 41.8421053 6.55263158"></polygon>
                    <polygon id="Shape" fill="#B62F31" points="21.3157895 0 21.3157895 4.38157895 21.3157895 4.36184211 21.3157895 24.3552632 21.3157895 24.3552632 21.3157895 39.4736842 21.3157895 39.4736842 39.3804059 30.8486842 42.6315789 6.55263158"></polygon>
                    <path d="M20.5480569,3.94736842 L7.89473684,30 L7.89473684,30 L12.6125555,30 L12.6125555,30 L15.1562642,24.1705989 L25.8963674,24.1705989 L28.4400761,30 L28.4400761,30 L33.1578947,30 L33.1578947,30 L20.5480569,3.94736842 L20.5480569,3.94736842 L20.5480569,3.94736842 L20.5480569,3.94736842 L20.5480569,3.94736842 Z M24.2440438,20.5771325 L16.8520699,20.5771325 L20.5480569,12.4119782 L24.2440438,20.5771325 Z" id="Shape" fill="#292F36"></path>
                </g>
                <g id="css-copy" transform="translate(62.368421, 0.789474)">
                    <path d="M0,0.409356725 L3.59389192,34.8574151 L19.7269332,38.6842105 L35.87413,34.8593731 L39.4736842,0.409356725 L0,0.409356725 Z M31.676338,11.6743616 L31.2265162,16.0009164 L29.8705175,28.9754526 L19.7356443,31.3747637 L19.7288932,31.3767217 L9.60066222,28.9754526 L8.89386166,22.1892612 L13.8560567,22.1892612 L14.223776,25.7094879 L19.730091,26.981823 L19.7354265,26.9802379 L25.2482749,25.7073434 L26.0000467,19.8443083 L8.65659184,19.8829091 L8.16658991,15.8736456 L26.4178551,15.6913639 L26.7866632,11.3981886 L7.67658798,11.444808 L7.35384005,7.45167472 L19.7355354,7.45167472 L32.1182108,7.45167472 L31.676338,11.6743616 Z" id="Shape" fill="#157BC8"></path>
                    <polygon id="Shape" fill="#47E5BC" points="0 0.409638158 0 0.409638158 0 0.409356725"></polygon>
                </g>
                <g id="html-copy" transform="translate(0.000000, 0.789474)" fill="#E44C21">
                    <path d="M0,0.115131579 L3.5939828,34.8281819 L19.7271992,38.6842105 L35.8728946,34.8301358 L39.4736842,0.115131579 L0,0.115131579 Z M31.6765113,11.4673112 L19.7362749,11.4673112 L12.7570507,11.4673112 L13.2085675,15.8274469 L19.7362749,15.8274469 L31.2272634,15.8274469 L29.8715786,28.9019924 L19.7362749,31.3199481 L19.7294681,31.321902 L9.6009711,28.9019924 L8.89419986,22.0633301 L13.8563466,22.0633301 L14.223913,25.6106419 L19.7306026,26.8924027 L19.7374093,26.8904488 L19.7374093,26.8904488 L25.2497712,25.608688 L25.8238101,20.0869566 L19.7374093,20.0869566 L19.7374093,20.0869566 L8.68886183,20.0869566 L7.35359739,7.21170924 L19.7362749,7.21170924 L32.1178179,7.21170924 L31.6765113,11.4673112 Z" id="Shape"></path>
                </g>
                <g id="github-copy-2" transform="translate(256.578947, 0.789474)" fill="#DDD8D8">
                    <path d="M21.7105263,0 C9.72127585,0 0,8.69594821 0,19.430538 C0,28.016518 6.22239192,35.2913385 14.8484492,37.8629029 C15.9339756,38.0405439 16.3313557,37.4399482 16.3313557,36.9239435 C16.3313557,36.4586934 16.3119713,35.2405839 16.3022791,33.6164379 C10.264039,34.7922519 8.9846687,31.0110371 8.9846687,31.0110371 C7.99606438,28.7693773 6.57131109,28.1687817 6.57131109,28.1687817 C4.60379464,26.9591313 6.71669408,26.9845086 6.71669408,26.9845086 C8.89743891,27.1198541 10.0411184,28.9893137 10.0411184,28.9893137 C11.9795583,31.9584556 15.1198308,31.1040871 16.3604323,30.6050006 C16.5542763,29.3530548 17.1164239,28.4902272 17.7367246,28.0080589 C12.9197016,27.5174315 7.85068139,25.85099 7.85068139,18.4069877 C7.85068139,16.2837552 8.69390273,14.549641 10.0798872,13.196186 C9.85696664,12.7055586 9.11066729,10.7261307 10.2931156,8.0530571 C10.2931156,8.0530571 12.1152491,7.5285933 16.2635103,10.0409441 C17.998414,9.60953032 19.8496241,9.39805298 21.7008341,9.38959389 C23.542352,9.39805298 25.4032542,9.60953032 27.1381579,10.0409441 C31.2864192,7.5285933 33.0988604,8.0530571 33.0988604,8.0530571 C34.2813087,10.7261307 33.5350094,12.7055586 33.3120888,13.196186 C34.6980733,14.5581001 35.5412946,16.2922143 35.5412946,18.4069877 C35.5412946,25.8679082 30.4625822,27.5089724 25.6261748,27.9911407 C26.4015508,28.5917363 27.0993891,29.7760094 27.0993891,31.5862555 C27.0993891,34.1831972 27.0703125,36.2810524 27.0703125,36.9154844 C27.0703125,37.4314891 27.4580005,38.0405439 28.5629112,37.8459847 C37.2083529,35.2828794 43.4210526,28.0080589 43.4210526,19.430538 C43.4210526,8.69594821 33.6997768,0 21.7105263,0 Z" id="Shape"></path>
                </g>
            </g>
        </g>
    </g>
</svg>