<svg width="380" height="50" viewBox="0 0 380 50" version="1.1" xmlns="http://www.w3.org/2000/svg" xmlns:xlink="http://www.w3.org/1999/xlink"><title>icons-blocjams</title><desc>Created with Sketch.</desc><g id="Page-1" stroke="none" stroke-width="1" fill="none" fill-rule="evenodd"><g id="Desktop" transform="translate(-575.000000, -535.000000)" fill-rule="nonzero"><g id="icons-blocjams" transform="translate(575.000000, 535.000000)"><g id="js-copy" transform="translate(241.000000, 1.000000)"><ellipse id="Oval" fill="#EEDD45" cx="27.5" cy="24" rx="27.5" ry="24"/><g id="Layer_1_1_" transform="translate(12.635135, 14.270270)" fill="#292F36"><g id="Group"><path d="M6.39469658,0.291891892 L11.2748598,0.291891892 L11.2748598,12.2108108 C11.2748598,17.5621622 8.30188679,19.4594595 3.5900051,19.4594595 C2.41203468,19.4594595 0.953595105,19.3135135 -7.10542736e-15,19.0216216 L0.560938297,15.5675676 C1.23406425,15.7621622 2.13156553,15.9081081 3.08516063,15.9081081 C5.16063233,15.9081081 6.45079041,15.0810811 6.45079041,12.2108108 L6.39469658,0.291891892 L6.39469658,0.291891892 Z" id="Shape"/><path d="M15.5940847,14.7891892 C16.8842427,15.372973 18.9597144,15.9567568 21.0351861,15.9567568 C23.2789393,15.9567568 24.4569097,15.1297297 24.4569097,13.8648649 C24.4569097,12.6972973 23.4472208,12.0162162 20.8108108,11.2378378 C17.2208057,10.1189189 14.808771,8.36756757 14.808771,5.59459459 C14.808771,2.43243243 17.9500255,0 23.054564,0 C25.5226925,0 27.3176951,0.437837838 28.6078531,0.972972973 L27.4859765,4.37837838 C26.6445691,4.03783784 25.0739419,3.5027027 22.9984702,3.5027027 C20.8669046,3.5027027 19.8572157,4.37837838 19.8572157,5.3027027 C19.8572157,6.51891892 21.0351861,7.05405405 23.8959714,7.97837838 C27.7103519,9.19459459 29.5053544,10.9459459 29.5053544,13.6216216 C29.5053544,16.7837838 26.7567568,19.4594595 20.754717,19.4594595 C18.2865885,19.4594595 15.81846,18.8756757 14.5843957,18.2918919 L15.5940847,14.7891892 Z" id="Shape"/></g></g></g><g id="angular-copy" transform="translate(158.000000, 0.000000)"><polygon id="Shape" fill="#E23135" points="26.5 0 26.5 0 26.5 0 0 8.3 4.04189044 39.075 26.5 50 26.5 50 26.5 50 48.9581096 39.075 53 8.3"/><polygon id="Shape" fill="#B62F31" points="27 0 27 5.55 27 5.525 27 30.85 27 30.85 27 50 27 50 49.8818475 39.075 54 8.3"/><path d="M26.0275387,5 L10,38 L10,38 L15.9759036,38 L15.9759036,38 L19.1979346,30.616092 L32.8020654,30.616092 L36.0240964,38 L36.0240964,38 L42,38 L42,38 L26.0275387,5 L26.0275387,5 L26.0275387,5 L26.0275387,5 L26.0275387,5 Z M30.7091222,26.0643678 L21.3459552,26.0643678 L26.0275387,15.7218391 L30.7091222,26.0643678 Z" id="Shape" fill="#292F36"/></g><g id="css-copy" transform="translate(79.000000, 1.000000)"><path d="M0,0.518518519 L4.5522631,44.1527258 L24.9874487,49 L45.4405647,44.155206 L50,0.518518519 L0,0.518518519 Z M40.1233614,14.7875247 L39.5535872,20.2678274 L37.8359889,36.7022399 L24.9984828,39.7413673 L24.9899314,39.7438475 L12.1608388,36.7022399 L11.2655581,28.1063976 L17.5510052,28.1063976 L18.0167829,32.5653513 L24.9914486,34.1769758 L24.998207,34.174968 L31.9811482,32.5626349 L32.9333925,25.1361238 L10.9650163,25.1850182 L10.3443472,20.1066177 L33.4626164,19.8757277 L33.9297734,14.4377056 L9.72367811,14.4967567 L9.31486406,9.43878798 L24.9983449,9.43878798 L40.683067,9.43878798 L40.1233614,14.7875247 Z" id="Shape" fill="#157BC8"/><polygon id="Shape" fill="#47E5BC" points="0 0.518875 0 0.518875 0 0.518518519"/></g><g id="html-copy" transform="translate(0.000000, 1.000000)" fill="#E44C21"><path d="M0,0.145833333 L4.55237822,44.1156971 L24.9877856,49 L45.4389999,44.118172 L50,0.145833333 L0,0.145833333 Z M40.123581,14.5252608 L24.9992815,14.5252608 L16.1589309,14.5252608 L16.7308521,20.0480994 L24.9992815,20.0480994 L39.5545337,20.0480994 L37.837333,36.6091904 L24.9992815,39.6719342 L24.9906596,39.6744092 L12.1612301,36.6091904 L11.2659865,27.9468847 L17.5513723,27.9468847 L18.0169565,32.4401464 L24.9920966,34.06371 L25.0007185,34.0612351 L25.0007185,34.0612351 L31.9830435,32.4376715 L32.7101595,25.4434784 L25.0007185,25.4434784 L25.0007185,25.4434784 L11.0058917,25.4434784 L9.31455669,9.1348317 L24.9992815,9.1348317 L40.6825693,9.1348317 L40.123581,14.5252608 Z" id="Shape"/></g><g id="github-copy-2" transform="translate(325.000000, 1.000000)" fill="#DDD8D8"><path d="M27.5,0 C12.3136161,0 0,11.0148677 0,24.6120148 C0,35.4875894 7.88169643,44.7023621 18.8080357,47.959677 C20.1830357,48.1846889 20.6863839,47.4239344 20.6863839,46.7703285 C20.6863839,46.1810116 20.6618304,44.6380729 20.6495536,42.5808214 C13.0011161,44.0701858 11.3805804,39.280647 11.3805804,39.280647 C10.1283482,36.4412113 8.32366071,35.6804568 8.32366071,35.6804568 C5.83147321,34.1482329 8.5078125,34.1803775 8.5078125,34.1803775 C11.2700893,34.3518151 12.71875,36.7197974 12.71875,36.7197974 C15.1741071,40.4807104 19.1517857,39.3985104 20.7232143,38.7663341 C20.96875,37.180536 21.6808036,36.0876211 22.4665179,35.4768746 C16.3649554,34.8554132 9.94419643,32.7445874 9.94419643,23.3155177 C9.94419643,20.6260899 11.0122768,18.4295452 12.7678571,16.7151689 C12.4854911,16.0937075 11.5401786,13.5864322 13.0379464,10.200539 C13.0379464,10.200539 15.3459821,9.53621817 20.6004464,12.7185292 C22.7979911,12.1720717 25.1428571,11.9042004 27.4877232,11.8934856 C29.8203125,11.9042004 32.1774554,12.1720717 34.375,12.7185292 C39.6294643,9.53621817 41.9252232,10.200539 41.9252232,10.200539 C43.4229911,13.5864322 42.4776786,16.0937075 42.1953125,16.7151689 C43.9508929,18.4402601 45.0189732,20.6368047 45.0189732,23.3155177 C45.0189732,32.7660171 38.5859375,34.8446983 32.4598214,35.4554449 C33.4419643,36.2161994 34.3258929,37.7162786 34.3258929,40.0092569 C34.3258929,43.2987165 34.2890625,45.9559997 34.2890625,46.7596136 C34.2890625,47.4132196 34.7801339,48.1846889 36.1796875,47.9382473 C47.1305804,44.6916472 55,35.4768746 55,24.6120148 C55,11.0148677 42.6863839,0 27.5,0 Z" id="Shape"/></g></g></g></g></svg>